<?xml version="1.0" standalone="no"?><!DOCTYPE svg PUBLIC "-//W3C//DTD SVG 1.1//EN" "http://www.w3.org/Graphics/SVG/1.1/DTD/svg11.dtd"><svg class="icon" width="200px" height="200.00px" viewBox="0 0 1024 1024" version="1.1" xmlns="http://www.w3.org/2000/svg"><path d="M638.468 871.704c22.868-23.93 242.55-28.71 242.55-28.71s-41.832-32.02-35.238-67.01c6.558-35.022 178.008-75.79 178.008-75.79s-153.39-83.756-128.336-164.202c0 0-216.308 28.586-217.622 20.778-1.344-7.812 207.188-207.938 207.188-207.938-169.262 62.98-33.054-176.948-33.054-176.948-15.62 9.03-239.738 136.396-176.758-32.866 0 0-200.124 208.532-207.936 207.218s20.776-217.622 20.776-217.622C407.6 153.638 323.752 0.154 323.752 0.154s-40.674 171.542-75.68 178.132c-35.02 6.56-67.01-35.27-67.01-35.27S176.28 362.728 152.336 385.566c-23.946 22.836-150.86 6.03-150.86 6.03s70.994 116.84-1.266 212.436l122.822 57.608-17.728 46.924s160.964 35.488 167.806 42.206c6.826 6.748 42.176 167.792 42.176 167.792l47.032-17.65 57.686 122.93c95.58-72.258 212.53-3.03 212.53-3.03s-16.902-125.18 5.934-149.108z" fill="#EC5564" /><path d="M578.864 666.954v-0.062l-205.046-16.872-16.872-205.06h-0.062c-0.968-11.716-11.262-20.462-22.992-19.494-11.746 0.966-20.478 11.278-19.51 22.992 0.032 0.376 0.094 0.718 0.14 1.094l19.104 232.242 9.184-0.75-0.748 9.152 232.24 19.122c0.376 0.032 0.688 0.094 1.062 0.124 11.746 0.968 22.054-7.75 22.992-19.496 1-11.746-7.746-22.024-19.492-22.992z" fill="#424953" /><path d="M546.808 477.072c-8.324-8.308-21.836-8.308-30.162 0-0.296 0.312-0.578 0.656-0.86 0.968l-0.046-0.062L94.556 899.164c-8.324 8.34-8.324 21.836 0 30.178 8.326 8.342 21.822 8.31 30.164 0l421.182-421.184-0.032-0.062c0.312-0.282 0.624-0.532 0.938-0.844 8.312-8.342 8.312-21.838 0-30.18z" fill="#646C77" /></svg>